<svg xmlns="http://www.w3.org/2000/svg" width="190.865" height="50.316">
  <path d="M51.657 32.532a14.5 14.5 0 0 1-2.86 4.616 5.2 5.2 0 0 1-6.225 1.059 5.55 5.55 0 0 1-1.873-1.665 8.1 8.1 0 0 1-1.194-2.57 12.2 12.2 0 0 1-.422-3.31 13.9 13.9 0 0 1 .473-3.721 9.4 9.4 0 0 1 1.358-2.95 6.4 6.4 0 0 1 2.161-1.943 5.85 5.85 0 0 1 2.86-.7 4.46 4.46 0 0 1 2.428.648 6.15 6.15 0 0 1 1.813 1.804 12.5 12.5 0 0 1 1.358 2.776 36 36 0 0 1 1.049 3.547zm6.8 8.234q.381-.072.854-.2v-2.319q-.227.062-.463.1a3 3 0 0 1-.5.041 1.45 1.45 0 0 1-.885-.288 2.95 2.95 0 0 1-.782-1.182 17.6 17.6 0 0 1-.813-2.529q-.422-1.635-.977-4.307l4.054-10.506h-2.839l-2.264 6.7h-.065a19.6 19.6 0 0 0-1.171-2.76 9.7 9.7 0 0 0-1.636-2.292 7.3 7.3 0 0 0-2.212-1.563 6.8 6.8 0 0 0-2.86-.576 9 9 0 0 0-4.023.874 8.5 8.5 0 0 0-2.994 2.426 11.2 11.2 0 0 0-1.865 3.715 16.4 16.4 0 0 0-.648 4.729A14 14 0 0 0 36.954 35a9.8 9.8 0 0 0 1.667 3.249 7.7 7.7 0 0 0 2.6 2.118 7.45 7.45 0 0 0 3.375.761 8.2 8.2 0 0 0 2.655-.422 7.4 7.4 0 0 0 2.3-1.3 10.6 10.6 0 0 0 2-2.221 20 20 0 0 0 1.749-3.2h.086q.371 1.748.772 3.043a10.7 10.7 0 0 0 .885 2.138 3.8 3.8 0 0 0 1.07 1.254 2.3 2.3 0 0 0 1.348.411 5.6 5.6 0 0 0 .997-.065zm5.918-.134V9.463h-2.633v31.169h2.634zm7.822-3.392a7.17 7.17 0 0 0 6.647 3.886 9 9 0 0 0 3.961-.853 8.6 8.6 0 0 0 2.994-2.4 11 11 0 0 0 1.893-3.69 16.2 16.2 0 0 0 .659-4.76 14.6 14.6 0 0 0-.587-4.3 9.4 9.4 0 0 0-1.687-3.248 7.5 7.5 0 0 0-2.7-2.066 9.16 9.16 0 0 0-8.046.432 8.37 8.37 0 0 0-3.138 3.361h-.077v-4.03h-2.635v30.744h2.635V37.24h.082zm-.081-8.162a9 9 0 0 1 .494-2.991 7.3 7.3 0 0 1 1.42-2.457 6.7 6.7 0 0 1 2.243-1.655 7 7 0 0 1 2.963-.607 6.15 6.15 0 0 1 2.644.555 5.6 5.6 0 0 1 2.017 1.6 7.6 7.6 0 0 1 1.286 2.539 11.5 11.5 0 0 1 .452 3.341 14.7 14.7 0 0 1-.483 3.906 9.2 9.2 0 0 1-1.379 2.981 6.24 6.24 0 0 1-2.167 1.91 6.1 6.1 0 0 1-2.86.668 6.5 6.5 0 0 1-2.706-.555 6.3 6.3 0 0 1-2.093-1.513 7 7 0 0 1-1.348-2.221 7.5 7.5 0 0 1-.484-2.7zm36.713 11.555V27.618q0-4.214-1.77-6.374a6.44 6.44 0 0 0-5.288-2.159 7.81 7.81 0 0 0-7.079 4.133h-.086V9.463h-2.634v31.169h2.634V28.851a9 9 0 0 1 .515-3.135 7.3 7.3 0 0 1 1.379-2.354 5.9 5.9 0 0 1 4.444-1.994 4.67 4.67 0 0 1 3.972 1.676 8.6 8.6 0 0 1 1.276 5.212v12.376h2.634zm18.4-8.1a14.5 14.5 0 0 1-2.861 4.616 5.2 5.2 0 0 1-6.225 1.059 5.55 5.55 0 0 1-1.872-1.665 8.1 8.1 0 0 1-1.194-2.57 12.2 12.2 0 0 1-.422-3.31 13.9 13.9 0 0 1 .474-3.721 9.3 9.3 0 0 1 1.358-2.95 6.4 6.4 0 0 1 2.161-1.943 5.85 5.85 0 0 1 2.86-.7 4.46 4.46 0 0 1 2.428.648 6.15 6.15 0 0 1 1.81 1.803 12.5 12.5 0 0 1 1.36 2.78 36 36 0 0 1 1.05 3.547zm6.8 8.234q.38-.07.854-.2v-2.32a4 4 0 0 1-.463.1 3 3 0 0 1-.5.041 1.45 1.45 0 0 1-.885-.288 2.94 2.94 0 0 1-.782-1.182 17.5 17.5 0 0 1-.813-2.529q-.422-1.635-.977-4.307l4.053-10.506h-2.839l-2.264 6.7h-.062a19.5 19.5 0 0 0-1.173-2.765 9.7 9.7 0 0 0-1.636-2.292 7.3 7.3 0 0 0-2.212-1.563 6.8 6.8 0 0 0-2.86-.576 9 9 0 0 0-4.023.874 8.5 8.5 0 0 0-2.994 2.426 11.2 11.2 0 0 0-1.867 3.72 16.4 16.4 0 0 0-.648 4.729 14 14 0 0 0 .586 4.171 9.8 9.8 0 0 0 1.667 3.249 7.7 7.7 0 0 0 2.6 2.118 7.45 7.45 0 0 0 3.375.761 8.2 8.2 0 0 0 2.655-.422 7.4 7.4 0 0 0 2.3-1.3 10.6 10.6 0 0 0 2-2.221 20 20 0 0 0 1.749-3.2h.082q.371 1.748.772 3.043a10.7 10.7 0 0 0 .885 2.138 3.8 3.8 0 0 0 1.07 1.254 2.3 2.3 0 0 0 1.348.411 5.6 5.6 0 0 0 1.002-.065z" style="fill:#fff"/>
  <path d="M154.3 13.658v-2.509h-19.756v2.508h8.5v26.975h2.737V13.658h8.52zm13.048 26.975V26.939q0-3.906-1.8-5.88a6.84 6.84 0 0 0-5.319-1.974 12 12 0 0 0-1.9.154 14.5 14.5 0 0 0-1.9.432 14 14 0 0 0-1.76.658 9 9 0 0 0-1.492.853v2.878a10.3 10.3 0 0 1 6.829-2.692q4.713 0 4.713 6.065l-6.4.925a9.5 9.5 0 0 0-5.35 2.21 6.01 6.01 0 0 0-1.77 4.554 6.3 6.3 0 0 0 .463 2.447 5.4 5.4 0 0 0 1.317 1.9 5.9 5.9 0 0 0 2.078 1.223 8.2 8.2 0 0 0 2.748.432 7.45 7.45 0 0 0 4.023-1.11 7.74 7.74 0 0 0 2.809-3.125h.082v3.742h2.634zm-2.634-10.979v2.076a8.2 8.2 0 0 1-.484 2.858 6.9 6.9 0 0 1-1.337 2.262 6.08 6.08 0 0 1-4.6 2.015 5.5 5.5 0 0 1-1.841-.288 3.9 3.9 0 0 1-1.379-.812 3.5 3.5 0 0 1-.864-1.244 4 4 0 0 1-.3-1.562 5.1 5.1 0 0 1 .309-1.9 3.1 3.1 0 0 1 .967-1.3 5 5 0 0 1 1.667-.833 16.5 16.5 0 0 1 2.428-.514zm10 7.587a7.14 7.14 0 0 0 6.647 3.886 8.9 8.9 0 0 0 3.94-.853 8.6 8.6 0 0 0 2.994-2.4 11.1 11.1 0 0 0 1.9-3.69 16 16 0 0 0 .669-4.76 14.5 14.5 0 0 0-.587-4.256 9.6 9.6 0 0 0-1.687-3.269 7.4 7.4 0 0 0-2.7-2.087 9.16 9.16 0 0 0-8.046.432 8.37 8.37 0 0 0-3.138 3.361h-.083V9.463h-2.634v31.169h2.634V37.24h.083zm-.083-8.162a9 9 0 0 1 .494-2.991 7.4 7.4 0 0 1 1.42-2.457 6.7 6.7 0 0 1 2.243-1.655 7 7 0 0 1 2.964-.607 6.15 6.15 0 0 1 2.644.555 5.6 5.6 0 0 1 2.017 1.6 7.6 7.6 0 0 1 1.286 2.539 11.5 11.5 0 0 1 .452 3.341 14.7 14.7 0 0 1-.483 3.906 9.2 9.2 0 0 1-1.379 2.981 6.25 6.25 0 0 1-2.171 1.9 6.1 6.1 0 0 1-2.86.668 6.5 6.5 0 0 1-2.706-.555 6.3 6.3 0 0 1-2.086-1.504 7 7 0 0 1-1.348-2.221 7.5 7.5 0 0 1-.484-2.7v-2.8z" style="fill:#ffffff99"/>
  <path d="M14.736 0v37.937a6.3 6.3 0 0 0-5.03-1.944C4.527 35.993 0 40.15 0 44.724c0 3.5 2.41 5.242 6.12 5.242 5.6 0 9.681-4.29 9.706-8.7V10.524c5.514 2.825 9.486 5.641 11.625 9.731 2.166 4.141.8 9.873-5.1 15.109-.151.545.092.826.518.808 10.461-8.781 8.769-19.787-.742-27.358A19.1 19.1 0 0 1 15.828 0Z" style="fill:#fff"/>
</svg>
