<svg xmlns="http://www.w3.org/2000/svg" xml:space="preserve" width="575.274" height="414.739" viewBox="0 0 152.208 109.733">
  <g transform="translate(-270.579 199.904)">
    <path d="M305.744-139.051s-31.59-1.69-31.59-18.898 22.018-26.18 39.205-24.256c17.187 1.925 62.263 36.958 77.564 37.513s27.115-3.277 28.205-11.564-9.596-18.35-21.154-17.77-14.882 5.784-26.842 6.722c-11.96.94-29.85-2.773-29.85-2.773" style="fill:none;stroke:#000;stroke-width:7.15;stroke-linecap:round;stroke-linejoin:round;stroke-dasharray:none;stroke-opacity:1;paint-order:stroke fill markers;stop-color:#000"/>
    <path d="M304.051-182.487s-.492-7.288 4.231-10.436c8.462-5.641 42.733-3.29 47.667 0 10.154 6.77 17.487 25.385 17.487 25.385s-29.375-.109-32.436-2.257c-21.773-15.278-36.949-12.692-36.949-12.692m-9.589 88.741s3.738-12.138 5.728-20.925c2.398-10.594 3.274-23.982 7.915-27.765 8.49-6.921 20.824-11.502 36.562-12.692s32.436 5.077 33 7.051c-12.917 1.095-25.4 15.61-23.693 25.949 1.707 10.338 9.957 12.749 20.308 4.23" style="fill:none;stroke:#000;stroke-width:7.15;stroke-linecap:round;stroke-linejoin:round;stroke-dasharray:none;stroke-opacity:1;paint-order:stroke fill markers;stop-color:#000"/>
    <path d="M376.115-149.205s18.004 7.955 15.372 23.692c-2.766 16.542-13.014 18.898-13.014 18.898s2.165-9.754-.524-13.116c-1.068-1.335-9.805-1.765-13.304-5.713-3.891-4.392-4.89-10.744-3.971-12.796 2.397-5.359 15.441-10.965 15.441-10.965" style="fill:none;stroke:#000;stroke-width:7.15;stroke-linecap:round;stroke-linejoin:round;stroke-dasharray:none;stroke-opacity:1;paint-order:stroke fill markers;stop-color:#000"/>
    <circle cx="340.435" cy="-141.167" r="4.372" style="fill:none;stroke:#000;stroke-width:5.75;stroke-linecap:round;stroke-linejoin:round;stroke-dasharray:none;stroke-opacity:1;paint-order:stroke fill markers;stop-color:#000"/>
    <path d="M363.846-112.82s2.062 14.096 3.667 19.04" style="fill:none;stroke:#000;stroke-width:7.15;stroke-linecap:round;stroke-linejoin:round;stroke-dasharray:none;stroke-opacity:1;paint-order:stroke fill markers;stop-color:#000"/>
    <path d="M319.012-119.422s1.177 7.86 5.866 12.76c4.69 4.899 10.27 6.285 14.283 6.752" style="fill:none;stroke:#000;stroke-width:7.15;stroke-linecap:round;stroke-linejoin:round;stroke-dasharray:none;paint-order:stroke fill markers;stop-color:#000"/>
  </g>
</svg>
