<svg xmlns="http://www.w3.org/2000/svg" xml:space="preserve" width="575.318" height="447.361" viewBox="0 0 152.22 118.364">
  <g transform="translate(-754.569 213.908)">
    <path d="M801.12-125.345s1.177 7.86 5.867 12.76 10.27 6.285 14.283 6.752" style="fill:none;stroke:#000;stroke-width:7.15;stroke-linecap:round;stroke-linejoin:round;stroke-dasharray:none;paint-order:stroke fill markers;stop-color:#000"/>
    <path d="M788.476-150.829s-29.722 1.642-30.32-18.756c-.599-20.398 20.023-25.782 39.803-23.459s62.263 36.958 77.564 37.513 26.516-4.075 27.607-12.362c1.09-8.287-9.596-18.349-21.154-17.769s-14.284 4.188-27.042 6.922-40.819-8.757-40.819-8.757" style="fill:none;stroke:#000;stroke-width:7.15;stroke-linecap:round;stroke-linejoin:round;stroke-dasharray:none;stroke-opacity:1;paint-order:stroke fill markers;stop-color:#000"/>
    <path d="M778.048-99.12c3.343-22.52 6.595-48.746 14.058-54.952 8.49-6.921 20.825-11.503 36.562-12.692s32.436 5.076 33 7.05c-12.916 1.096-19.11 11.969-18.108 25.007.793 10.319 7.298 16.945 11.517 20.105 1.719 1.286 1.762 9.263 2.808 15.483" style="fill:none;stroke:#000;stroke-width:7.15;stroke-linecap:round;stroke-linejoin:round;stroke-dasharray:none;stroke-opacity:1;paint-order:stroke fill markers;stop-color:#000"/>
    <path d="M854.98-157.838c4.41-1.337 14.942-.748 21.387 13.847 6.822 15.452.3 22.411.3 22.411s-4.033-9.703-8.489-10.193c-4.455-.49-6.326 1.482-14.421 1.28-8.096-.201-10.18-4.794-10.13-9.239.118-10.807 6.944-16.769 11.353-18.106" style="fill:none;stroke:#000;stroke-width:7.15;stroke-linecap:round;stroke-linejoin:round;stroke-dasharray:none;stroke-opacity:1;paint-order:stroke fill markers;stop-color:#000"/>
    <circle cx="823.109" cy="-149.359" r="4.853" style="fill:none;stroke:#000;stroke-width:6.38299;stroke-linecap:round;stroke-linejoin:round;stroke-dasharray:none;stroke-opacity:1;paint-order:stroke fill markers;stop-color:#000"/>
    <path d="M868.896-129.292s-3.71 13.158-14.004 14.044" style="fill:none;stroke:#000;stroke-width:7.15;stroke-linecap:round;stroke-linejoin:round;stroke-dasharray:none;stroke-opacity:1;paint-order:stroke fill markers;stop-color:#000"/>
    <path d="M788.204-194.966s-1.46-5.743 7.118-11.169c8.578-5.425 29.058-5.517 44.484-.712 15.425 4.804 20.38 24.645 20.38 24.645" style="fill:none;stroke:#000;stroke-width:7.14999;stroke-linecap:round;stroke-linejoin:round;stroke-dasharray:none;stroke-opacity:1;paint-order:stroke fill markers;stop-color:#000"/>
  </g>
</svg>
